# xmcd
#
# Track frame offsets:
#	150
#	12703
#	25444
#	34472
#	46063
#	58482
#	71060
#	83903
#	94077
#	106483
#	117288
#	128855
#
# Disc length: 1869 seconds
#
# Revision: 1
# Processed by: cddbd v1.5.2PL0 Copyright (c) Steve Scherf et al.
# Submitted via: audiograbber 1.83.01
#
DISCID=af074b0c
DTITLE=Porter Wagoner - Satisfied Mind
DYEAR=1957
DGENRE=Country
TTITLE0=A Satisfied Mind
TTITLE1=My Bonfire
TTITLE2=I Like Girls
TTITLE3=Ivory Tower
TTITLE4=Company's Comin'
TTITLE5=Born To Lose
TTITLE6=Midnight
TTITLE7=That's It
TTITLE8=I Guess I'm Crazy (For Loving You)
TTITLE9=I'm Stepping Out Tonight
TTITLE10=Living In The Past
TTITLE11=Tricks Of The Trade
EXTD=
EXTT0=
EXTT1=
EXTT2=
EXTT3=
EXTT4=
EXTT5=
EXTT6=
EXTT7=
EXTT8=
EXTT9=
EXTT10=
EXTT11=
PLAYORDER=
